# xmcd
#
# Track frame offsets:
#	150
#	18816
#	34512
#	51486
#	67179
#	87549
#	104149
#	118815
#	134883
#	150410
#	165071
#	176402
#	198684
#	222048
#
# Disc length: 3245 seconds
#
# Revision: 1
# Processed by: cddbd v1.5.2PL0 Copyright (c) Steve Scherf et al.
# Submitted via: audiograbber 1.83.01
#
DISCID=c80cab0e
DTITLE=Roman - Any Place But Home
DYEAR=2008
DGENRE=
TTITLE0=What Have I Been Drinking?
TTITLE1=Hit Them
TTITLE2=Rider
TTITLE3=The Honeymoon Song
TTITLE4=The House Of The Rising Sun
TTITLE5=Hazy
TTITLE6=Good Music
TTITLE7=Screwed and Blued
TTITLE8=Jerry Springer
TTITLE9=St James Infirmary
TTITLE10=Gold Digger
TTITLE11=Silent Lullaby
TTITLE12=Sex Shop Clerk
TTITLE13=The Pain Within Her Heart
EXTD=
EXTT0=
EXTT1=
EXTT2=
EXTT3=
EXTT4=
EXTT5=
EXTT6=
EXTT7=
EXTT8=
EXTT9=
EXTT10=
EXTT11=
EXTT12=
EXTT13=
PLAYORDER=
